<svg xmlns="http://www.w3.org/2000/svg" width="16" height="16" fill="none"><path fill="#84A882" fill-rule="evenodd" d="M7.36 14.23c.16.19.393.3.64.3s.48-.11.64-.3l3.457-4.15a5.35 5.35 0 0 0 1.236-3.413A5.34 5.34 0 0 0 8 1.334a5.34 5.34 0 0 0-5.333 5.333c0 1.247.44 2.457 1.236 3.413zM3.667 6.667A4.337 4.337 0 0 1 8 2.334a4.337 4.337 0 0 1 4.333 4.333A4.34 4.34 0 0 1 11.33 9.44L8 13.437 4.67 9.44a4.35 4.35 0 0 1-1.003-2.773m2 0A2.336 2.336 0 0 0 8 9a2.336 2.336 0 0 0 2.333-2.333A2.336 2.336 0 0 0 8 4.334a2.336 2.336 0 0 0-2.333 2.333m1 0a1.333 1.333 0 1 1 2.666 0 1.333 1.333 0 0 1-2.666 0" clip-rule="evenodd"/></svg>