<svg xmlns="http://www.w3.org/2000/svg" width="120" height="39" fill="none"><g clip-path="url(#a)"><path fill="#6D7C75" d="M89.554 36.75c.163-1.551-.961-2.95-2.435-3.298-1.133-.267-3.013.012-3.831 1.035a33 33 0 0 0-3.754-2.129c.978.14 1.96.033 2.716-.714 1.005-.99.738-2.544-.199-3.481-1.053-1.053-2.728-1.106-3.959-.33-1.135.718-1.619 2.017-1.462 3.289-12.04-4.492-26.051-2.245-38.927-.166a289 289 0 0 0 8-2.731c5.424-1.93 10.842-3.935 16.281-5.88-.457 2.434 3.23 4.003 5.05 2.725.854-.599 1.257-1.69.792-2.66-.365-.756-1.106-1.207-1.898-1.456 8.125-2.846 16.313-5.497 24.676-7.498 4.688-1.124 9.498-1.91 14.29-1.945-1.844 2.028 1.773 6.075 4.282 5.663 1.569-.258 1.791-1.75 1.397-3.087a4.6 4.6 0 0 0-1.732-2.428c1.563.133 3.117.359 4.662.697.857 1.141 2.064 2.075 3.484 2.232 1.415.158 2.998-.747 3.01-2.312.015-1.578-1.539-2.6-2.945-2.75-.836-.088-2.327-.097-3.282.413a.68.68 0 0 0-.516.196.67.67 0 0 0-.196.498q-.012.027-.024.056c-.195.092-.344.332-.216.584.029.057.065.113.098.17-8.903-1.774-18.101-.167-26.98 2.318 1.222-1.165 2.007-2.77 1.747-4.513-.256-1.708-1.614-3.098-3.405-2.97-4.033.29-2.458 6.25-.077 7.978-3.787 1.11-7.505 2.34-11.108 3.5-7.248 2.333-14.398 5.016-21.568 7.622a.7.7 0 0 0 .068-.21c1.154-1.409.869-3.751-1.186-4.415-1.163-.377-2.094.516-2.295 1.642a2.7 2.7 0 0 0 .225 1.64c.27.552 1.61 1.326 1.438 1.975-5.456 1.969-10.933 3.872-16.488 5.515A88.2 88.2 0 0 0 48.45 19.463q.202-.205.4-.415c.216.044.448-.095.492-.294.22-.041.344-.293.276-.513 1.43-1.538 2.796-3.196 4.175-4.85.095.03.205.02.315-.045 2.02-1.219 4.134 1.331 6.242.308 1.154-.557 1.723-2.38 1.177-3.549-.599-1.28-2.52-1.198-3.641-.821-.315.107-.605.249-.881.412 1.681-1.815 3.472-3.487 5.495-4.83a.43.43 0 0 0 .338-.11c1.394.73 3.09 1.213 4.427.128 1.092-.887 1.201-2.61.413-3.73-.857-1.22-2.619-1.465-3.891-.798-1.266.664-1.809 2.058-1.711 3.416a.43.43 0 0 0-.042.453c-4.92 3.289-8.365 8.501-12.36 12.836.525-2.232-1.817-4.504-4.006-3.045-1 .667-1.23 1.957-.697 3 .29.567.792 1 1.373 1.258.427.19 1.255.169 1.815.347-5.276 5.305-11.221 9.88-17.653 13.675l-.875.243c-.107-.062-.237-.068-.365.045-.053.044-.104.068-.154.1-.113.03-.225.066-.338.095-.033 0-.053.015-.092.01a.38.38 0 0 0-.332.109c-.243.065-.487.14-.73.201-8.91 2.298-18.056 3.585-27.264 2.957-.504-.036-.454.756.044.788 9.665.662 19.148-.815 28.421-3.264.229-.006.442-.06.64-.172l.647-.178c.11.062.247.08.389 0 .11-.062.213-.13.323-.196.516-.145 1.035-.287 1.548-.439 2.082-.317 4.208-.664 6.364-1.014-.279.487-.326 1.222-.172 1.765.403 1.396 1.465 3.46 3.131 3.546 1.554.08 2.43-1.542 2.218-2.924-.19-1.254-.963-2.256-1.99-2.903 7.216-1.135 14.686-2.099 21.868-1.699-.317.386-.383 1.006-.317 1.48.02.142.068.267.106.4 0 .35.036.682.086.94.33 1.667 1.516 3.712 3.45 3.671 1.687-.036 2.354-1.625 2.06-3.107a5.5 5.5 0 0 0-1.755-3.055c3.262.416 6.444 1.163 9.492 2.364.071.062.16.095.25.095a32.6 32.6 0 0 1 5.725 3.006.34.34 0 0 0-.032.33c.643 1.624 1.758 3.273 3.63 3.483 1.459.166 2.906-.69 3.069-2.23zm26.253-26.455-.074.02q-.014-.005-.027-.011c.033 0 .068-.006.101-.006zm-1.601.738q-.06.028-.113.056c-.059-.08-.053-.121.113-.056m2.381 1.337q-.087-.023-.172-.047.006-.012.012-.024.467.102.94.181c-.249 0-.555-.095-.777-.107zm-1.916-.646.134-.053c.02.095.071.18.157.24q-.084-.024-.166-.048l-.125-.142zm2.414 1.47.018-.017c.679.018 1.349.003 1.64-.537a.4.4 0 0 0 .166-.112c-.048.252-.356.483-.67.598-.371.137-.768.143-1.154.069m-9.712 1.228a.3.3 0 0 0 .261.042l.027.02c.024.042.053.078.077.116a5.5 5.5 0 0 0-.697-.136c-.024 0-.039.009-.062.012-.086-.134-.172-.264-.249-.4l-.021-.036c.225.113.448.237.664.382m.922-2.167q.001-.002.003-.01.018.013.036.025-.019-.008-.042-.015zm-3.063.3c.036.115.086.228.163.325a1.5 1.5 0 0 0-.041.309c-.018.694.445 1.37.975 1.975-.783-.792-1.31-1.806-1.097-2.61m4.683 3.071c-.003-.041-.012-.08-.018-.118.015-.078.041-.152.047-.232.003-.068-.006-.145-.009-.216q.01.002.021-.006c.012.201.006.394-.041.572m-25.397-3.71q-.01-.03-.02-.062c.003-.026.02-.05.017-.08l.054.092-.018.083q-.017-.014-.03-.03zm1.46-1.998h.002v.006s0-.006-.003-.009zM83.48 8.314c-.021-.009-.039-.02-.063-.027.018-.008.033-.011.048-.02q.005.023.015.044zm3.116.3a.32.32 0 0 0-.074-.214c-.024-.03-.047-.053-.074-.08.012-.033.024-.062.033-.098.068.113.124.232.177.353-.02.012-.044.024-.062.039m-3.214 3.196c.026.1.038.208.07.308a7 7 0 0 1-.314-.62c.075.11.16.211.244.315zM65.806 24.7s.027 0 .039.002c-.015 0-.027.006-.039.01zm.943-.505.12-.026-.087.08zm-3.677-2.23q-.008.032-.012.06a.403.403 0 0 0-.195.516q-.051-.035-.101-.074c.009-.054.012-.104.027-.157a.34.34 0 0 0-.018-.24q.148-.052.296-.105zm.09 1.827c.106.071.225.116.337.178-.015.041-.015.08-.015.125a2.2 2.2 0 0 1-.323-.303m-12.263-1.853c-.032.006-.068.009-.1.02-.018-.011-.03-.026-.048-.038-.018-.05-.045-.1-.065-.151.074.056.148.107.213.172zm-1.017-.466c-.062.066-.128.13-.17.205a1.3 1.3 0 0 0-.491.207c-.057.039-.095.08-.143.12.157-.3.418-.523.804-.532m6.394-9.948q.045.002.088.01a.8.8 0 0 0-.148.32c-.08.005-.157.005-.24.02.071-.13.16-.243.246-.361.018.006.033.014.053.014zm.83-.82c-.045 0-.09.005-.134.005.077-.062.146-.133.229-.19q-.053.087-.095.181zm-2.15 1.576c-.077.006-.157.01-.237.024q.207-.245.415-.486a4 4 0 0 0-.178.465zm2.675.596q.197.002.394-.006c.448.098.896.193 1.326.22-.083.009-.163.02-.246.024-.516.009-1.003-.098-1.471-.238zm7.476-9.933a1 1 0 0 1-.057-.086l.05.036q-.001.026.004.047zm-1.581 1.293h-.003zm.477-3.09c.22-.139.466-.228.718-.287-.243.08-.477.216-.688.436-.012.012-.018.026-.03.038q-.266.073-.492.243c.142-.16.3-.31.492-.43m-1.13 1.833q.033.325.184.61c-.068.04-.139.075-.204.116a3.3 3.3 0 0 1 .02-.726m-14.02 13.971c.035-.038.056-.08.086-.118-.015.062-.042.119-.062.18-.01-.02-.015-.04-.024-.059zm-1.942-2.526a1.8 1.8 0 0 0-.49.217 1.03 1.03 0 0 0-.536.281 1.64 1.64 0 0 1 1.023-.498zm-1.127.626c-.104.151-.181.335-.193.566 0 .027.006.05.009.077q-.082.287-.042.582c-.11-.478-.011-.899.229-1.225zm-5.765 19.3q.023.047.044.095c-.047-.05-.077-.113-.112-.172q.031.04.068.077m2.224-1.637s.012-.009.02-.012q.037.035.069.068-.045-.027-.09-.056m-1.593 2.8.006.008s-.005-.006-.005-.009m47.86.743c.006.018.015.036.018.057zm-2.604 1.385c-.038-.012-.07-.033-.107-.047a.4.4 0 0 0 .098-.13q.16.111.33.224c-.107-.014-.214-.017-.318-.047zm1.311-3.32c.469.171.89.51 1.18.927l-.193-.024a.46.46 0 0 0-.183-.382 4.3 4.3 0 0 0-1.768-.679c.377.012.72.065.964.154zm-5.237-4.638c.006-.066 0-.13-.006-.199q.072.2.095.4c-.027-.068-.047-.133-.089-.201m-1.118-1.385a2.3 2.3 0 0 0-.59-.053 2.7 2.7 0 0 0-.661-.13c.427-.051.86.008 1.251.183m-2.728.507a1.4 1.4 0 0 0-.208.513l-.018.015a.4.4 0 0 0-.15-.06q.154-.255.376-.465zm-11.046 5.02c0-.015.005-.03 0-.044 0-.01-.006-.015-.006-.024.07.032.139.083.21.118-.044.01-.095.01-.142.015-.024-.02-.042-.044-.066-.065zm-1.335-2.129s-.02.03-.033.041q-.018-.047-.038-.094.035.026.071.05zm-.175-1.127q0-.052.003-.107c.05.04.095.084.145.122l-.15-.015zm-.996-.3c-.128.116-.187.3-.057.484a.6.6 0 0 1 .066.136.42.42 0 0 0-.244-.082q.006-.35.095-.605c.066 0 .104.032.14.068m.42 3.153q.023.114.048.225a4 4 0 0 1-.121-.216c.026 0 .047-.006.074-.01m2.1-2.885-.163-.098c-.009-.036-.026-.065-.038-.098q.1.095.201.196"/></g><defs><clipPath id="a"><path fill="#fff" d="M0 0h120v39H0z"/></clipPath></defs></svg>